<svg width="118" height="79" viewBox="0 0 118 79" fill="none" xmlns="http://www.w3.org/2000/svg">
<g clip-path="url(#clip0)">
<path d="M19.7908 19.6805H0V18.8933C0 8.47421 8.5217 0 18.9992 0H19.7908V19.6805Z" fill="#FED049"/>
<path d="M19.7908 19.6805H0V39.3611H19.7908V19.6805Z" fill="#FED049"/>
<path d="M19.7908 39.3611H0V59.0416H19.7908V39.3611Z" fill="#FED049"/>
<path d="M19.7908 78.7685H18.7664C8.42857 78.7685 0 70.3869 0 60.0604V59.0416H19.7908V78.7685Z" fill="#FED049"/>
<path d="M39.5817 39.3611H19.7908V59.0416H39.5817V39.3611Z" fill="#FED049"/>
<path d="M39.5817 0H19.7908V19.6805H39.5817V0Z" fill="#FED049"/>
<path d="M79.21 0H39.5817V19.6805H79.21V0Z" fill="#007580"/>
<path d="M99.0008 19.6805H79.21V0H79.3962C90.2462 0 99.0008 8.75205 99.0008 19.4953V19.6805Z" fill="#007580"/>
<path d="M58.9069 19.6805H39.0695V0H39.2557C50.1058 0 58.8603 8.75205 58.8603 19.4953V19.6805H58.9069Z" fill="#FED049"/>
<path d="M59.3725 19.6805H39.5817V39.3611H59.3725V19.6805Z" fill="#007580"/>
<path d="M59.3725 39.3611H39.5817V59.0416H59.3725V39.3611Z" fill="#007580"/>
<path d="M79.21 39.3611H59.4191V59.0416H79.21V39.3611Z" fill="#007580"/>
<path d="M59.4191 78.7685H59.0931C48.3362 78.7685 39.6283 70.109 39.6283 59.4121V59.0879H59.4191V78.7685Z" fill="#007580"/>
<path d="M80.7932 39.8242H83.8666L84.0994 58.9027H81.026L80.7932 39.8242Z" fill="#FED049"/>
<path d="M88.989 45.0569H88.9424L89.1286 58.8564H86.3346L86.1018 39.8242H89.9669L93.2265 51.262H93.2731L93.1334 39.8242H95.8808L96.1137 58.9027H92.9471L88.989 45.0569Z" fill="#FED049"/>
<path d="M108.361 58.9027H105.241L104.682 55.4297H100.91L100.444 58.9027H97.6038L100.491 39.8242H105.008L108.361 58.9027ZM101.236 52.8365H104.216L102.633 43.2046H102.586L101.236 52.8365Z" fill="#FED049"/>
<path d="M109.571 39.8242H112.645L112.878 56.1706H117.953L118 58.9027H109.804L109.571 39.8242Z" fill="#FED049"/>
<path d="M61.3749 60.8939H64.262L64.5414 78.7685H61.6543L61.3749 60.8939Z" fill="#00EDFF"/>
<path d="M69.105 65.8487H69.0584L69.2447 78.8147H66.6369L66.3575 60.9402H69.9898L73.0632 71.6371H73.1097L72.9235 60.9402H75.4846L75.764 78.8147H72.7838L69.105 65.8487Z" fill="#00EDFF"/>
<path d="M87.3126 78.7685H84.3789L83.8201 75.527H80.281L79.8153 78.7685H77.161L79.8153 60.8939H84.0529L87.3126 78.7685ZM80.607 73.119H83.401L81.9108 64.0891H81.8643L80.607 73.119Z" fill="#00EDFF"/>
<path d="M91.0844 65.8487H91.0379L91.2241 78.8147H88.6164L88.337 60.9402H91.9692L95.0426 71.6371H95.0892L94.9029 60.9402H97.4641L97.7435 78.8147H94.7632L91.0844 65.8487Z" fill="#00EDFF"/>
<path d="M108.221 72.1002L108.268 74.4619C108.314 77.3329 106.871 78.9537 104.03 78.9537C101.189 78.9537 99.6993 77.3329 99.6527 74.4619L99.513 65.1541C99.4665 62.2831 100.91 60.6624 103.751 60.6624C106.591 60.6624 108.081 62.2831 108.128 65.1541L108.174 66.8675H105.427L105.38 64.9689C105.38 63.6723 104.775 63.2092 103.844 63.2092C102.912 63.2092 102.354 63.6723 102.354 64.9689L102.493 74.6008C102.493 75.8974 103.099 76.3605 104.03 76.3605C104.961 76.3605 105.52 75.8974 105.52 74.6008L105.474 72.0539H108.221V72.1002Z" fill="#00EDFF"/>
<path d="M112.831 68.442H116.789L116.836 70.9889H112.878L112.971 76.2216H118L118.047 78.7685H110.13L109.851 60.8939H117.767L117.814 63.4408H112.785L112.831 68.442Z" fill="#00EDFF"/>
</g>
<defs>
<clipPath id="clip0">
<rect width="118" height="79" fill="white"/>
</clipPath>
</defs>
</svg>
